<svg width="395" height="395" viewBox="0 0 395 395" fill="none" xmlns="http://www.w3.org/2000/svg">
<rect width="395" height="395" rx="50" fill="#58E1FF"/>
<path d="M346 197C346 279.29 279.29 346 197 346C114.71 346 48 279.29 48 197C48 114.71 114.71 48 197 48C279.29 48 346 114.71 346 197ZM82.4543 197C82.4543 260.262 133.738 311.546 197 311.546C260.262 311.546 311.546 260.262 311.546 197C311.546 133.738 260.262 82.4543 197 82.4543C133.738 82.4543 82.4543 133.738 82.4543 197Z" fill="white"/>
<path d="M176.875 229.031V226.375C176.927 217.26 177.734 209.995 179.297 204.578C180.911 199.161 183.255 194.786 186.328 191.453C189.401 188.12 193.099 185.099 197.422 182.391C200.651 180.307 203.542 178.146 206.094 175.906C208.646 173.667 210.677 171.193 212.188 168.484C213.698 165.724 214.453 162.651 214.453 159.266C214.453 155.672 213.594 152.521 211.875 149.812C210.156 147.104 207.839 145.021 204.922 143.562C202.057 142.104 198.88 141.375 195.391 141.375C192.005 141.375 188.802 142.13 185.781 143.641C182.76 145.099 180.286 147.286 178.359 150.203C176.432 153.068 175.391 156.635 175.234 160.906H143.359C143.62 150.49 146.12 141.896 150.859 135.125C155.599 128.302 161.875 123.224 169.687 119.891C177.5 116.505 186.12 114.812 195.547 114.812C205.911 114.812 215.078 116.531 223.047 119.969C231.016 123.354 237.266 128.276 241.797 134.734C246.328 141.193 248.594 148.979 248.594 158.094C248.594 164.187 247.578 169.604 245.547 174.344C243.568 179.031 240.781 183.198 237.188 186.844C233.594 190.437 229.349 193.693 224.453 196.609C220.339 199.057 216.953 201.609 214.297 204.266C211.693 206.922 209.74 209.995 208.438 213.484C207.188 216.974 206.536 221.271 206.484 226.375V229.031H176.875ZM192.344 279.031C187.135 279.031 182.682 277.208 178.984 273.562C175.339 269.865 173.542 265.437 173.594 260.281C173.542 255.177 175.339 250.802 178.984 247.156C182.682 243.51 187.135 241.687 192.344 241.687C197.292 241.687 201.641 243.51 205.391 247.156C209.141 250.802 211.042 255.177 211.094 260.281C211.042 263.719 210.13 266.87 208.359 269.734C206.641 272.547 204.375 274.812 201.562 276.531C198.75 278.198 195.677 279.031 192.344 279.031Z" fill="white"/>
</svg>
